:FULLY-SPECIFIED
:FORCE-ALL-JOINTS-BE-3DOF
:DEGREES
306
root -0.848063 15.4624 -36.2465 24.9603 63.5971 21.8772
lfemur -19.6805 17.6539 -22.8287
ltibia 57.4677 0 0
lfoot -27.4378 28.8267 0
ltoes -0.572901 0 0
rfemur -40.8175 -10.4343 13.0064
rtibia 75.3329 0 0
rfoot -10.856 -15.1209 0
rtoes -18.642 0 0
lowerback 17.243 0.557555 -5.8825
upperback -1.42742 -0.563723 2.30228
thorax -11.0384 0.216477 6.15117
lowerneck -6.0076 3.21622 0.421721
upperneck 4.87424 4.54039 -3.74735
head 2.89222 2.14016 -1.07512
lclavicle -2.44884e-14 -1.40096e-15 0
lhumerus 17.1794 -24.4112 68.0403
lradius 34.5933 0 0
lwrist -38.2809 0 0
lhand -20.7616 38.8914 0
lfingers 7.12502 0 0
lthumb 5.60379 68.7688 0
rclavicle -2.44884e-14 -1.40096e-15 0
rhumerus -46.3226 23.5817 -87.4294
rradius 116.103 0 0
rwrist -55.4722 0 0
rhand 37.1553 -12.9559 0
rfingers 7.12502 0 0
rthumb 59.6129 -24.2299 0
307
root -0.733631 15.4469 -36.2089 26.3476 65.0411 23.937
lfemur -18.4473 16.5038 -22.8984
ltibia 56.9856 0 0
lfoot -27.3125 28.7917 0
ltoes -1.25945 0 0
rfemur -42.2595 -10.0752 13.0853
rtibia 76.1546 0 0
rfoot -10.6765 -13.8583 0
rtoes -17.7739 0 0
lowerback 17.7552 0.5741 -6.52664
upperback -1.28085 -0.70945 2.1991
thorax -11.1456 0.185056 6.45486
lowerneck -5.95744 2.88383 0.185333
upperneck 4.82009 4.08962 -3.41168
head 2.83418 1.92345 -0.946558
lclavicle -2.97325e-14 -1.81746e-15 0
lhumerus 18.019 -26.35 68.3011
lradius 35.0725 0 0
lwrist -36.9164 0 0
lhand -21.1016 38.4912 0
lfingers 7.12502 0 0
lthumb 5.2755 68.3776 0
rclavicle -2.97325e-14 -1.81746e-15 0
rhumerus -45.1584 24.6741 -87.1811
rradius 117.198 0 0
rwrist -54.7007 0 0
rhand 36.2682 -12.9895 0
rfingers 7.12502 0 0
rthumb 58.8674 -25.1372 0
308
root -0.6192 15.4313 -36.1713 27.7349 66.4852 25.9969
lfemur -17.2141 15.3536 -22.968
ltibia 56.5034 0 0
lfoot -27.1872 28.7567 0
ltoes -1.946 0 0
rfemur -43.7015 -9.71601 13.1643
rtibia 76.9764 0 0
rfoot -10.497 -12.5957 0
rtoes -16.9059 0 0
lowerback 18.2674 0.590644 -7.17078
upperback -1.13428 -0.855177 2.09591
thorax -11.2528 0.153635 6.75854
lowerneck -5.90728 2.55144 -0.0510552
upperneck 4.76595 3.63885 -3.07601
head 2.77614 1.70674 -0.818
lclavicle -3.49767e-14 -2.23396e-15 0
lhumerus 18.8586 -28.2888 68.5619
lradius 35.5517 0 0
lwrist -35.5519 0 0
lhand -21.4417 38.0911 0
lfingers 7.12502 0 0
lthumb 4.94721 67.9864 0
rclavicle -3.49767e-14 -2.23396e-15 0
rhumerus -43.9942 25.7665 -86.9328
rradius 118.292 0 0
rwrist -53.9292 0 0
rhand 35.3811 -13.0231 0
rfingers 7.12502 0 0
rthumb 58.1219 -26.0446 0
309
root -0.504768 15.4157 -36.1337 29.1222 67.9292 28.0567
lfemur -15.9809 14.2034 -23.0377
ltibia 56.0213 0 0
lfoot -27.0619 28.7218 0
ltoes -2.63256 0 0
rfemur -45.1435 -9.35685 13.2432
rtibia 77.7981 0 0
rfoot -10.3174 -11.3332 0
rtoes -16.0378 0 0
lowerback 18.7795 0.607188 -7.81492
upperback -0.987712 -1.0009 1.99273
thorax -11.36 0.122214 7.06222
lowerneck -5.85712 2.21905 -0.287443
upperneck 4.7118 3.18809 -2.74033
head 2.7181 1.49003 -0.689443
lclavicle -4.02208e-14 -2.65046e-15 0
lhumerus 19.6982 -30.2276 68.8227
lradius 36.0308 0 0
lwrist -34.1874 0 0
lhand -21.7817 37.691 0
lfingers 7.12502 0 0
lthumb 4.61892 67.5953 0
rclavicle -4.02208e-14 -2.65046e-15 0
rhumerus -42.8299 26.8589 -86.6844
rradius 119.387 0 0
rwrist -53.1577 0 0
rhand 34.494 -13.0567 0
rfingers 7.12502 0 0
rthumb 57.3764 -26.9519 0
310
root -0.390336 15.4002 -36.0961 30.5095 69.3733 30.1166
lfemur -14.7477 13.0532 -23.1074
ltibia 55.5392 0 0
lfoot -26.9366 28.6868 0
ltoes -3.31911 0 0
rfemur -46.5855 -8.99769 13.3221
rtibia 78.6198 0 0
rfoot -10.1379 -10.0706 0
rtoes -15.1698 0 0
lowerback 19.2917 0.623733 -8.45906
upperback -0.841144 -1.14663 1.88954
thorax -11.4672 0.090793 7.36591
lowerneck -5.80696 1.88665 -0.523831
upperneck 4.65765 2.73732 -2.40466
head 2.66006 1.27332 -0.560885
lclavicle -4.54649e-14 -3.06696e-15 0
lhumerus 20.5378 -32.1664 69.0835
lradius 36.51 0 0
lwrist -32.8229 0 0
lhand -22.1217 37.2908 0
lfingers 7.12502 0 0
lthumb 4.29063 67.2041 0
rclavicle -4.54649e-14 -3.06696e-15 0
rhumerus -41.6657 27.9513 -86.4361
rradius 120.481 0 0
rwrist -52.3862 0 0
rhand 33.6069 -13.0903 0
rfingers 7.12502 0 0
rthumb 56.6309 -27.8592 0
311
root -0.275905 15.3846 -36.0585 31.8969 70.8173 32.1764
lfemur -13.5145 11.9031 -23.177
ltibia 55.057 0 0
lfoot -26.8112 28.6518 0
ltoes -4.00566 0 0
rfemur -48.0276 -8.63853 13.4011
rtibia 79.4416 0 0
rfoot -9.9584 -8.80803 0
rtoes -14.3017 0 0
lowerback 19.8039 0.640277 -9.1032
upperback -0.694575 -1.29236 1.78636
thorax -11.5745 0.0593719 7.66959
lowerneck -5.75681 1.55426 -0.76022
upperneck 4.60351 2.28655 -2.06899
head 2.60202 1.05661 -0.432327
lclavicle -5.07091e-14 -3.48347e-15 0
lhumerus 21.3774 -34.1052 69.3444
lradius 36.9892 0 0
lwrist -31.4584 0 0
lhand -22.4618 36.8907 0
lfingers 7.12502 0 0
lthumb 3.96233 66.8129 0
rclavicle -5.07091e-14 -3.48347e-15 0
rhumerus -40.5015 29.0436 -86.1878
rradius 121.576 0 0
rwrist -51.6146 0 0
rhand 32.7197 -13.1238 0
rfingers 7.12502 0 0
rthumb 55.8854 -28.7666 0
312
root -0.161473 15.369 -36.0209 33.2842 72.2614 34.2363
lfemur -12.2813 10.7529 -23.2467
ltibia 54.5749 0 0
lfoot -26.6859 28.6168 0
ltoes -4.69221 0 0
rfemur -49.4696 -8.27937 13.48
rtibia 80.2633 0 0
rfoot -9.77887 -7.54547 0
rtoes -13.4337 0 0
lowerback 20.3161 0.656821 -9.74734
upperback -0.548007 -1.43808 1.68317
thorax -11.6817 0.0279509 7.97327
lowerneck -5.70665 1.22187 -0.996608
upperneck 4.54936 1.83579 -1.73332
head 2.54398 0.8399 -0.30377
lclavicle -5.59532e-14 -3.89997e-15 0
lhumerus 22.217 -36.044 69.6052
lradius 37.4684 0 0
lwrist -30.0939 0 0
lhand -22.8018 36.4906 0
lfingers 7.12502 0 0
lthumb 3.63404 66.4218 0
rclavicle -5.59532e-14 -3.89997e-15 0
rhumerus -39.3372 30.136 -85.9394
rradius 122.67 0 0
rwrist -50.8431 0 0
rhand 31.8326 -13.1574 0
rfingers 7.12502 0 0
rthumb 55.1399 -29.6739 0
313
root -0.0470417 15.3535 -35.9833 34.6715 73.7054 36.2961
lfemur -11.0482 9.60273 -23.3164
ltibia 54.0927 0 0
lfoot -26.5606 28.5818 0
ltoes -5.37876 0 0
rfemur -50.9116 -7.92021 13.559
rtibia 81.0851 0 0
rfoot -9.59935 -6.2829 0
rtoes -12.5656 0 0
lowerback 20.8283 0.673366 -10.3915
upperback -0.401439 -1.58381 1.57999
thorax -11.7889 -0.0034702 8.27696
lowerneck -5.65649 0.889473 -1.233
upperneck 4.49522 1.38502 -1.39765
head 2.48594 0.623189 -0.175212
lclavicle -6.11973e-14 -4.31647e-15 0
lhumerus 23.0566 -37.9827 69.866
lradius 37.9476 0 0
lwrist -28.7294 0 0
lhand -23.1419 36.0904 0
lfingers 7.12502 0 0
lthumb 3.30575 66.0306 0
rclavicle -6.11973e-14 -4.31647e-15 0
rhumerus -38.173 31.2284 -85.6911
rradius 123.765 0 0
rwrist -50.0716 0 0
rhand 30.9455 -13.191 0
rfingers 7.12502 0 0
rthumb 54.3944 -30.5812 0
314
root 0.0673899 15.3379 -35.9457 36.0588 75.1495 38.356
lfemur -9.81496 8.45256 -23.3861
ltibia 53.6106 0 0
lfoot -26.4353 28.5469 0
ltoes -6.06532 0 0
rfemur -52.3536 -7.56105 13.6379
rtibia 81.9068 0 0
rfoot -9.41982 -5.02033 0
rtoes -11.6976 0 0
lowerback 21.3404 0.68991 -11.0356
upperback -0.25487 -1.72954 1.4768
thorax -11.8961 -0.0348913 8.58064
lowerneck -5.60633 0.557079 -1.46938
upperneck 4.44107 0.934255 -1.06198
head 2.4279 0.406479 -0.0466543
lclavicle -6.64414e-14 -4.73297e-15 0
lhumerus 23.8962 -39.9215 70.1268
lradius 38.4267 0 0
lwrist -27.3649 0 0
lhand -23.4819 35.6903 0
lfingers 7.12502 0 0
lthumb 2.97746 65.6394 0
rclavicle -6.64414e-14 -4.73297e-15 0
rhumerus -37.0088 32.3208 -85.4428
rradius 124.859 0 0
rwrist -49.3001 0 0
rhand 30.0584 -13.2246 0
rfingers 7.12502 0 0
rthumb 53.6489 -31.4885 0
315
root 0.181821 15.3224 -35.9081 37.4461 76.5935 40.4158
lfemur -8.58177 7.30239 -23.4557
ltibia 53.1284 0 0
lfoot -26.31 28.5119 0
ltoes -6.75187 0 0
rfemur -53.7956 -7.20189 13.7169
rtibia 82.7286 0 0
rfoot -9.2403 -3.75777 0
rtoes -10.8295 0 0
lowerback 21.8526 0.706455 -11.6798
upperback -0.108302 -1.87526 1.37362
thorax -12.0033 -0.0663123 8.88433
lowerneck -5.55617 0.224686 -1.70577
upperneck 4.38693 0.483488 -0.726307
head 2.36986 0.189768 0.0819033
lclavicle -7.16856e-14 -5.14947e-15 0
lhumerus 24.7358 -41.8603 70.3876
lradius 38.9059 0 0
lwrist -26.0004 0 0
lhand -23.822 35.2901 0
lfingers 7.12502 0 0
lthumb 2.64917 65.2483 0
rclavicle -7.16856e-14 -5.14947e-15 0
rhumerus -35.8445 33.4132 -85.1944
rradius 125.954 0 0
rwrist -48.5286 0 0
rhand 29.1713 -13.2582 0
rfingers 7.12502 0 0
rthumb 52.9034 -32.3959 0
316
root 0.296253 15.3068 -35.8705 38.8334 78.0376 42.4757
lfemur -7.34858 6.15222 -23.5254
ltibia 52.6463 0 0
lfoot -26.1847 28.4769 0
ltoes -7.43842 0 0
rfemur -55.2376 -6.84273 13.7958
rtibia 83.5503 0 0
rfoot -9.06077 -2.4952 0
rtoes -9.96148 0 0
lowerback 22.3648 0.722999 -12.3239
upperback 0.0382666 -2.02099 1.27043
thorax -12.1105 -0.0977334 9.18801
lowerneck -5.50601 -0.107707 -1.94216
upperneck 4.33278 0.0327216 -0.390636
head 2.31182 -0.0269426 0.210461
lclavicle -7.69297e-14 -5.56597e-15 0
lhumerus 25.5754 -43.7991 70.6484
lradius 39.3851 0 0
lwrist -24.6359 0 0
lhand -24.162 34.89 0
lfingers 7.12502 0 0
lthumb 2.32088 64.8571 0
rclavicle -7.69297e-14 -5.56597e-15 0
rhumerus -34.6803 34.5056 -84.9461
rradius 127.048 0 0
rwrist -47.7571 0 0
rhand 28.2842 -13.2918 0
rfingers 7.12502 0 0
rthumb 52.1579 -33.3032 0
317
root 0.48327 15.2554 -35.7975 43.0897 78.0799 46.6467
lfemur -6.70477 5.78103 -23.23
ltibia 52.4272 0 0
lfoot -26.4091 28.7494 0
ltoes -7.55457 0 0
rfemur -55.2956 -6.72153 13.1861
rtibia 82.2033 0 0
rfoot -8.28834 -1.62282 0
rtoes -8.72731 0 0
lowerback 22.0592 0.901488 -12.3125
upperback 0.0315164 -1.75087 1.15029
thorax -12.0006 0.0179634 8.96639
lowerneck -5.39821 -0.551535 -2.30071
upperneck 4.19309 -0.558784 -0.0333262
head 2.30537 -0.318173 0.368642
lclavicle -7.17092e-14 -5.27726e-15 0
lhumerus 21.0664 -42.7054 72.2678
lradius 42.2078 0 0
lwrist -20.6299 0 0
lhand -23.4649 35.0551 0
lfingers 7.12502 0 0
lthumb 2.99337 64.9915 0
rclavicle -7.17092e-14 -5.27726e-15 0
rhumerus -30.6231 33.174 -83.6542
rradius 122.115 0 0
rwrist -44.9265 0 0
rhand 25.4177 -14.2127 0
rfingers 7.12502 0 0
rthumb 49.4283 -34.6958 0
318
root 0.670288 15.204 -35.7244 47.3459 78.1223 50.8177
lfemur -6.06095 5.40983 -22.9346
ltibia 52.2082 0 0
lfoot -26.6335 29.0219 0
ltoes -7.67072 0 0
rfemur -55.3535 -6.60033 12.5764
rtibia 80.8562 0 0
rfoot -7.51591 -0.750438 0
rtoes -7.49314 0 0
lowerback 21.7535 1.07998 -12.3012
upperback 0.0247662 -1.48074 1.03015
thorax -11.8907 0.13366 8.74477
lowerneck -5.2904 -0.995363 -2.65927
upperneck 4.0534 -1.15029 0.323984
head 2.29893 -0.609403 0.526824
lclavicle -6.64888e-14 -4.98855e-15 0
lhumerus 16.5574 -41.6118 73.8872
lradius 45.0304 0 0
lwrist -16.6239 0 0
lhand -22.7678 35.2202 0
lfingers 7.12502 0 0
lthumb 3.66585 65.126 0
rclavicle -6.64888e-14 -4.98855e-15 0
rhumerus -26.5659 31.8424 -82.3623
rradius 117.183 0 0
rwrist -42.096 0 0
rhand 22.5512 -15.1336 0
rfingers 7.12502 0 0
rthumb 46.6987 -36.0884 0
319
root 0.857305 15.1526 -35.6514 51.6022 78.1646 54.9887
lfemur -5.41714 5.03864 -22.6393
ltibia 51.9891 0 0
lfoot -26.8578 29.2944 0
ltoes -7.78686 0 0
rfemur -55.4115 -6.47913 11.9667
rtibia 79.5092 0 0
rfoot -6.74347 0.121943 0
rtoes -6.25897 0 0
lowerback 21.4479 1.25847 -12.2898
upperback 0.0180159 -1.21062 0.910006
thorax -11.7808 0.249357 8.52315
lowerneck -5.1826 -1.43919 -3.01782
upperneck 3.91371 -1.7418 0.681293
head 2.29248 -0.900634 0.685005
lclavicle -6.12683e-14 -4.69984e-15 0
lhumerus 12.0484 -40.5181 75.5066
lradius 47.8531 0 0
lwrist -12.6179 0 0
lhand -22.0707 35.3853 0
lfingers 7.12502 0 0
lthumb 4.33834 65.2604 0
rclavicle -6.12683e-14 -4.69984e-15 0
rhumerus -22.5087 30.5108 -81.0704
rradius 112.25 0 0
rwrist -39.2654 0 0
rhand 19.6847 -16.0546 0
rfingers 7.12502 0 0
rthumb 43.9691 -37.4811 0
